<?xml version="1.0" encoding="UTF-8"?>
<svg version="1.1" xmlns="http://www.w3.org/2000/svg" width="2048" height="2048">
<path d="M0 0 C1.76974953 -0.00946191 1.76974953 -0.00946191 3.57525158 -0.01911497 C4.8625583 -0.02097697 6.14986502 -0.02283896 7.47618103 -0.02475739 C8.86496039 -0.03020868 10.25373819 -0.03607269 11.64251423 -0.0423131 C15.45492762 -0.05812444 19.2673346 -0.06766716 23.07977057 -0.07607794 C26.35190868 -0.08409791 29.62402962 -0.09578585 32.89615631 -0.10749274 C44.62715438 -0.14938134 56.35817273 -0.17663804 68.08921814 -0.20114899 C69.01738736 -0.20312389 69.94555657 -0.20509879 70.90185213 -0.20713353 C89.37603363 -0.24635988 107.85022218 -0.28000746 126.32443237 -0.30221558 C130.38632721 -0.30718401 134.44822194 -0.3122284 138.51011658 -0.31735992 C140.02426075 -0.31926593 140.02426075 -0.31926593 141.56899369 -0.32121044 C157.84515634 -0.34247512 174.12111429 -0.39137152 190.39717448 -0.45160407 C207.16014962 -0.51311848 223.92302022 -0.54746053 240.68610668 -0.55668879 C250.07601123 -0.5625519 259.46557084 -0.57982902 268.85536194 -0.62807465 C276.87061268 -0.66922135 284.88546219 -0.68535085 292.90081358 -0.67142183 C296.97262784 -0.6650692 301.04359306 -0.66890435 305.11526871 -0.70529556 C328.78045457 -0.90557754 350.90382702 2.18825801 374.02671814 7.14260101 C376.13938891 7.58573152 378.25209024 8.02871637 380.36483765 8.47148132 C384.85210675 9.4198288 389.31601365 10.45207918 393.77671814 11.51760101 C395.39389312 11.89810668 397.01108105 12.27855735 398.62828064 12.65895844 C462.89586812 27.8715365 526.02306573 48.42889456 586.02671814 76.14260101 C588.34422474 77.20033479 590.66193871 78.25761432 592.97984314 79.31447601 C616.44857626 90.06378506 639.50920122 101.51734416 662.02671814 114.14260101 C663.65480408 115.05332367 663.65480408 115.05332367 665.31578064 115.98244476 C688.35936815 128.90870096 710.65762525 142.81860673 732.65171814 157.45510101 C733.7936261 158.21439911 733.7936261 158.21439911 734.95860291 158.98903656 C744.7806042 165.52889402 754.47437995 172.21477266 764.02671814 179.14260101 C765.30313171 180.06649628 765.30313171 180.06649628 766.60533142 181.00905609 C787.84445305 196.44610722 808.44427101 212.69701236 828.4026947 229.75685883 C830.09386035 231.19989193 831.79046433 232.63634918 833.48765564 234.07228851 C840.47598718 240.00184049 847.29268516 246.07993076 853.99546814 252.33010101 C856.72112781 254.86992025 859.49212494 257.35490705 862.27671814 259.83010101 C866.21134836 263.35089472 869.95374276 267.01593471 873.62828064 270.80666351 C875.62481804 272.75117388 877.65584704 274.57051364 879.76499939 276.38869476 C884.23167014 280.2671534 888.41900581 284.387245 892.58921814 288.58010101 C893.30529236 289.29230804 894.02136658 290.00451508 894.75914001 290.73830414 C898.82519332 294.811757 902.69494053 298.99091946 906.45225525 303.3498764 C908.53886991 305.72575041 910.76178335 307.93726977 913.02671814 310.14260101 C916.55426461 313.63301542 919.90056288 317.18904415 923.12437439 320.95900726 C925.03386512 323.15080463 926.99737636 325.28644966 928.97471619 327.41701508 C933.80492605 332.6232293 938.38798559 337.95508481 942.84312439 343.49025726 C945.02068882 346.13527738 947.27990577 348.67472626 949.58921814 351.20510101 C953.15994285 355.13289819 956.52739016 359.16498867 959.81187439 363.33400726 C961.4532659 365.41541908 963.10581834 367.4842363 964.77281189 369.54494476 C971.52154027 377.89812565 978.05878059 386.38536543 984.4495697 395.01515961 C986.07177912 397.20338451 987.70138017 399.38597513 989.33140564 401.56838226 C1016.75729794 438.40415898 1041.65884097 477.21618933 1063.6190033 517.55812836 C1064.62304375 519.40148115 1065.63095617 521.24272716 1066.64146423 523.08254242 C1105.93832512 594.72077494 1136.32638949 671.50962694 1161.02671814 768.14260101 C1161.21149719 768.90858612 1161.39627625 769.67457123 1161.58665466 770.46376801 C1174.66278664 824.82821528 1182.82977782 879.80638473 1187.26499939 935.52541351 C1187.32824905 936.30410797 1187.39149872 937.08280243 1187.45666504 937.88509369 C1188.69211276 953.96807962 1189.19201323 970.03982078 1189.22984314 986.16603851 C1189.23686581 988.03029148 1189.24395262 989.8945442 1189.25109863 991.75879669 C1189.27048388 997.67840169 1189.27553227 1003.59796747 1189.27671814 1009.51760101 C1189.27716 1010.52600918 1189.27760185 1011.53441734 1189.2780571 1012.57338333 C1189.28474088 1041.65631645 1189.19815372 1070.62543316 1186.28318787 1099.59102631 C1186.01164114 1102.2925996 1185.75076607 1104.99508653 1185.49058533 1107.69777679 C1176.52056259 1199.77628564 1156.12652463 1290.79403343 1058.49888611 1513.60842133 C1057.00652941 1516.17735375 1055.54574739 1518.76195453 1054.09312439 1521.35353851 C1036.68024236 1552.36742644 1016.9628952 1582.38645969 996.02671814 1611.14260101 C995.47612732 1611.90137543 994.9255365 1612.66014984 994.35826111 1613.44191742 C983.19819416 1628.79430916 971.50466972 1643.64249492 959.49888611 1658.33840179 C958.20400303 1659.92533147 956.91381336 1661.51608838 955.62437439 1663.10744476 C946.96802448 1673.76743444 938.0431044 1684.16993115 928.69468689 1694.22853851 C926.68911624 1696.41910323 924.72619255 1698.62760275 922.78013611 1700.86989594 C911.44581783 1713.83790088 899.28812392 1726.04261475 887.09922791 1738.20046234 C884.56411138 1740.73015405 882.03447177 1743.26523634 879.50523376 1745.80080414 C877.86818497 1747.43719303 876.23082648 1749.07327218 874.59312439 1750.70900726 C873.85026688 1751.45388901 873.10740936 1752.19877075 872.34204102 1752.96622467 C868.29033683 1756.99998536 864.15261194 1760.87099258 859.81315613 1764.59427643 C856.86601315 1767.14859623 854.0506002 1769.8417998 851.21421814 1772.51760101 C846.17105996 1777.24133211 840.99980838 1781.71094392 835.60484314 1786.03322601 C833.00245524 1788.16245247 830.51096312 1790.37709458 828.02671814 1792.64260101 C822.85156998 1797.34728116 817.46468974 1801.74696445 812.02671814 1806.14260101 C810.79551727 1807.15342869 809.56509196 1808.16520151 808.33531189 1809.17775726 C799.77975513 1816.20610419 791.07656468 1822.98396459 782.16880798 1829.5595932 C779.89445363 1831.2403447 777.6264597 1832.92946042 775.35874939 1834.61916351 C765.39722721 1842.02426946 755.32340108 1849.21214134 745.02671814 1856.14260101 C744.05734314 1856.79744476 743.08796814 1857.45228851 742.08921814 1858.12697601 C704.40548813 1883.55434723 665.46586874 1906.37380184 625.02671814 1927.14260101 C624.07603455 1927.63228363 623.12535095 1928.12196625 622.14585876 1928.62648773 C569.18097394 1955.81716066 513.10302783 1977.31768185 456.02671814 1994.14260101 C455.27229431 1994.36520599 454.51787048 1994.58781097 453.74058533 1994.81716156 C391.16453356 2013.20989136 326.94105535 2025.24838072 262.02671814 2031.39260101 C260.82625854 2031.50829941 260.82625854 2031.50829941 259.60154724 2031.62633514 C229.24867343 2034.5088765 198.8744039 2035.52807678 168.39835358 2035.46065903 C165.78719013 2035.45498802 163.17603326 2035.45218654 160.56486511 2035.44957733 C132.29588825 2035.40860437 104.19421914 2034.71937399 76.02671814 2032.14260101 C75.0835675 2032.05774445 74.14041687 2031.97288788 73.16868591 2031.8854599 C18.3775099 2026.92006001 -35.61117628 2017.4225631 -88.97328186 2004.14260101 C-90.24735901 2003.82742523 -91.52143616 2003.51224945 -92.8341217 2003.18752289 C-178.2880648 1981.83844659 -261.36180192 1947.71807293 -429.96644592 1845.58449554 C-432.09665451 1844.05395881 -434.23395872 1842.53366219 -436.37171936 1841.01369476 C-455.70987651 1827.21503778 -474.3178612 1812.4357511 -492.39247131 1797.02248383 C-495.71082945 1794.1951415 -499.07543824 1791.43612395 -502.47328186 1788.70510101 C-507.22819236 1784.83869934 -511.73989831 1780.75731234 -516.20765686 1776.56667328 C-519.00085342 1773.9480515 -521.82794523 1771.3842118 -524.72084045 1768.87575531 C-537.6848114 1757.55174174 -549.8803138 1745.39697067 -562.03114319 1733.21511078 C-564.5608349 1730.67999425 -567.09591719 1728.15035464 -569.63148499 1725.62111664 C-571.26787388 1723.98406784 -572.90395303 1722.34670935 -574.53968811 1720.70900726 C-575.28456985 1719.96614975 -576.0294516 1719.22329224 -576.79690552 1718.45792389 C-580.82768544 1714.40921373 -584.69662841 1710.27477539 -588.41809082 1705.93933868 C-591.02147127 1702.93161062 -593.75278691 1700.04405196 -596.47328186 1697.14260101 C-601.06478882 1692.21755638 -605.60561063 1687.26861516 -609.97328186 1682.14260101 C-611.14697327 1680.76974945 -611.14697327 1680.76974945 -612.34437561 1679.36916351 C-615.23730201 1675.97421667 -618.10902071 1672.56175162 -620.97328186 1669.14260101 C-621.79240051 1668.16492767 -621.79240051 1668.16492767 -622.62806702 1667.16750336 C-630.79993357 1657.38882223 -638.68240664 1647.43033812 -646.36439514 1637.26320648 C-647.97264133 1635.14344526 -649.59359505 1633.03409296 -651.21937561 1630.92775726 C-689.30259609 1581.5695226 -721.96126086 1528.11838414 -750.21546936 1472.59523773 C-751.3371592 1470.39205193 -752.46185205 1468.19039069 -753.59046936 1465.99074554 C-786.03253745 1402.74312232 -810.33002424 1334.92347835 -827.97328186 1266.14260101 C-828.17246216 1265.36650482 -828.37164246 1264.59040863 -828.57685852 1263.79079437 C-847.50051484 1189.71347594 -858.999097 1112.44500859 -859.17640686 1035.90041351 C-859.18342891 1034.01369453 -859.19051573 1032.12697578 -859.19766235 1030.24025726 C-859.21704907 1024.24936833 -859.2220959 1018.25851815 -859.22328186 1012.26760101 C-859.22372372 1011.2473156 -859.22416557 1010.22703018 -859.22462082 1009.17582703 C-859.23126465 979.9301217 -859.16164205 950.79822969 -856.22651672 921.67086029 C-855.95955193 919.00552344 -855.7056237 916.33914331 -855.45326233 913.67238617 C-851.44422781 871.77103361 -844.83861203 830.28412324 -835.97328186 789.14260101 C-835.82135376 788.43176361 -835.66942566 787.72092621 -835.51289368 786.98854828 C-827.03308434 747.36750981 -815.41239871 708.35024788 -801.97328186 670.14260101 C-801.74723267 669.49688141 -801.52118347 668.8511618 -801.2882843 668.18587494 C-779.61185528 606.30048248 -751.55711064 546.44726667 -717.97328186 490.14260101 C-716.93405812 488.3887903 -715.89499178 486.6348863 -714.85609436 484.88088226 C-686.0796913 436.45150921 -652.95930025 390.5855221 -616.35902405 347.76662445 C-614.91599095 346.07545881 -613.47953369 344.37885482 -612.04359436 342.68166351 C-606.11404238 335.69333197 -600.03595211 328.87663399 -593.78578186 322.17385101 C-591.24596262 319.44819134 -588.76097582 316.67719422 -586.28578186 313.89260101 C-582.76498816 309.9579708 -579.09994816 306.21557639 -575.30921936 302.54103851 C-573.40365574 300.58448991 -571.6288379 298.59967827 -569.85218811 296.52931976 C-565.31916655 291.30881423 -560.43303921 286.45647453 -555.53578186 281.58010101 C-554.63279358 280.67324554 -553.7298053 279.76639008 -552.79945374 278.83205414 C-548.20784333 274.24709342 -543.55767488 269.80977373 -538.63319397 265.5842514 C-536.64793271 263.860032 -534.79929118 262.03382495 -532.97328186 260.14260101 C-529.82348156 256.9499879 -526.56108697 253.97098822 -523.16078186 251.04885101 C-520.61816787 248.83314453 -518.14217988 246.5516151 -515.66078186 244.26760101 C-511.22077402 240.2173881 -506.65393905 236.3872598 -501.97718811 232.61525726 C-498.47660708 229.73376468 -495.07070861 226.75515539 -491.66078186 223.76760101 C-485.2308981 218.15615458 -478.6314533 212.82500562 -471.87464905 207.6142807 C-469.82975695 206.03151111 -467.79543866 204.43580577 -465.76234436 202.83791351 C-418.56463352 165.80161669 -367.98844325 133.20555785 -314.97328186 105.14260101 C-313.90207092 104.57541351 -312.83085999 104.00822601 -311.72718811 103.42385101 C-227.66079439 59.06372806 -137.57540371 26.30003954 -11.97328186 1.14260101 C-11.02855294 0.96632722 -10.08382402 0.79005343 -9.11046696 0.60843801 C-6.02261581 0.14992655 -3.11956566 0.01048451 0 0 Z M155.02671814 463.14260101 C154.06121033 463.81806976 153.09570251 464.49353851 152.10093689 465.18947601 C93.96349101 506.68176104 59.20431293 568.88852042 47.40122986 638.85012054 C44.44374207 657.49704477 42.87199981 675.740148 42.91319275 694.60085297 C42.91349969 696.45471285 42.91336456 698.30857284 42.91282749 700.16243267 C42.91260335 705.09064418 42.91836499 710.01883101 42.92543793 714.94703674 C42.93116719 719.58526429 42.93140291 724.22348608 42.93211365 728.86171722 C42.93734408 742.39284837 42.95130534 755.92397501 42.96421814 769.45510101 C42.98484314 799.71197601 43.00546814 829.96885101 43.02671814 861.14260101 C-18.02328186 861.14260101 -79.07328186 861.14260101 -141.97328186 861.14260101 C-141.97328186 932.75260101 -141.97328186 1004.36260101 -141.97328186 1078.14260101 C-80.92328186 1078.14260101 -19.87328186 1078.14260101 43.02671814 1078.14260101 C43.02671814 1260.63260101 43.02671814 1443.12260101 43.02671814 1631.14260101 C114.63671814 1631.14260101 186.24671814 1631.14260101 260.02671814 1631.14260101 C260.02671814 1448.65260101 260.02671814 1266.16260101 260.02671814 1078.14260101 C320.74671814 1078.14260101 381.46671814 1078.14260101 444.02671814 1078.14260101 C446.08582458 1076.08349458 445.78610511 1072.01600022 446.1340332 1069.17969513 C446.24105999 1068.33510634 446.34808678 1067.49051755 446.4583568 1066.62033516 C446.81868561 1063.76815289 447.17279751 1060.91523251 447.52696228 1058.06227875 C447.78290739 1056.02583149 448.03921775 1053.98943011 448.29586792 1051.95307159 C448.99408146 1046.40368961 449.68678268 1040.85363221 450.37826848 1035.30340838 C450.95558733 1030.67371829 451.53561332 1026.04436909 452.11566347 1021.41502053 C453.48449217 1010.49030346 454.8489377 999.5650451 456.21055603 988.63942719 C457.61542282 977.36729808 459.02695837 966.09601878 460.44192797 954.82515377 C461.65573208 945.15504935 462.86570059 935.48447045 464.07253164 925.81349331 C464.79365027 920.03493909 465.51614562 914.25656582 466.24218941 908.47862816 C466.92541701 903.03985466 467.60383166 897.60050183 468.27857399 892.16066933 C468.52680489 890.16585598 468.77670608 888.17124964 469.02841568 886.17687225 C469.37230628 883.44992445 469.71009302 880.72228597 470.04638672 877.9943924 C470.14686925 877.20906 470.24735179 876.42372761 470.35087925 875.61459726 C470.44083084 874.87473929 470.53078242 874.13488132 470.62345982 873.37260342 C470.70189957 872.74432862 470.78033933 872.11605383 470.86115605 871.4687404 C471.10555563 868.03493809 471.02671814 864.58508987 471.02671814 861.14260101 C401.39671814 861.14260101 331.76671814 861.14260101 260.02671814 861.14260101 C260.15046814 836.43385101 260.27421814 811.72510101 260.40171814 786.26760101 C260.43571716 778.49600433 260.46971619 770.72440765 260.50474548 762.71730804 C260.55918884 753.15016937 260.55918884 753.15016937 260.58717346 748.65648651 C260.60586985 745.55061495 260.6193166 742.44477076 260.62940979 739.33885956 C260.77198457 697.36480063 260.77198457 697.36480063 265.21421814 681.39260101 C265.42707458 680.61094574 265.63993103 679.82929047 265.85923767 679.02394867 C269.07687057 667.83427009 274.26492229 657.88779182 282.02671814 649.14260101 C282.53460876 648.54189789 283.04249939 647.94119476 283.56578064 647.32228851 C293.83389083 636.04254185 308.85958462 630.4085226 323.21421814 626.45510101 C323.93109802 626.2524765 324.64797791 626.04985199 325.38658142 625.84108734 C342.92959456 621.26937583 361.12560863 621.80331947 379.10443878 621.73740387 C382.47241692 621.72327768 385.84031362 621.6986918 389.20823669 621.67507172 C399.0018366 621.61228772 408.79553612 621.56590609 418.58921814 621.51760101 C440.51359314 621.39385101 462.43796814 621.27010101 485.02671814 621.14260101 C485.02671814 556.13260101 485.02671814 491.12260101 485.02671814 424.14260101 C480.48769805 423.23479699 476.14985989 422.82843378 471.5499115 422.58596039 C470.28491821 422.51499901 470.28491821 422.51499901 468.99436951 422.44260406 C466.20195228 422.28693393 463.40927991 422.13652107 460.61656189 421.98635101 C458.65053009 421.87831312 456.68451162 421.7700325 454.71850586 421.66152191 C450.58186294 421.43400731 446.44509282 421.20901395 442.30821228 420.98586273 C437.09155328 420.70433353 431.87521464 420.41731913 426.65894985 420.12858963 C395.91999283 418.42938451 365.24039214 416.94920013 334.44541931 416.90236664 C330.59404774 416.89261324 326.74320146 416.86139012 322.89195251 416.83010101 C264.89101748 416.58420751 203.15647583 429.1075227 155.02671814 463.14260101 Z " fill="#FFFFFF" transform="translate(858.9732818603516,-0.14260101318359375)"/>
</svg>
